<?xml version="1.0" encoding="UTF-8" ?>
<!DOCTYPE svg PUBLIC "-//W3C//DTD SVG 1.1//EN" "http://www.w3.org/Graphics/SVG/1.1/DTD/svg11.dtd">
<svg width="100pt" height="100pt" viewBox="0 0 158 149" version="1.1" xmlns="http://www.w3.org/2000/svg">
<path fill="#fcfdfc" d=" M 0.00 0.00 L 158.00 0.00 L 158.00 149.00 L 0.00 149.00 L 0.00 0.00 Z" />
<path fill="#060406" d=" M 71.45 9.81 C 87.25 7.66 103.83 11.07 117.12 20.00 C 132.75 30.10 143.83 47.11 146.33 65.60 C 147.22 77.03 146.99 88.88 142.55 99.63 C 139.15 108.18 133.92 115.94 127.49 122.50 C 122.79 126.46 118.04 130.44 112.70 133.50 C 98.48 141.15 81.41 143.74 65.71 139.70 C 47.96 135.50 32.01 123.72 23.33 107.61 C 12.99 89.59 11.99 66.64 20.91 47.87 C 29.84 27.70 49.59 12.82 71.45 9.81 Z" />
<path fill="#fcfdfc" d=" M 75.34 11.36 C 89.80 9.09 104.93 12.76 117.07 20.84 C 135.65 33.17 146.66 55.79 145.46 77.99 C 144.99 100.01 132.11 121.21 113.24 132.41 C 105.93 136.21 97.91 138.99 89.66 139.62 C 83.06 139.67 76.30 140.18 69.87 138.32 C 56.51 134.98 43.84 127.57 35.55 116.44 C 21.54 99.11 17.73 74.41 25.10 53.48 C 32.21 31.58 52.32 14.10 75.34 11.36 Z" />
<path fill="#060406" d=" M 71.44 20.75 C 80.06 19.94 89.00 19.72 97.30 22.57 C 112.72 27.23 125.69 39.19 131.72 54.11 C 137.72 68.95 137.21 86.49 129.69 100.70 C 122.06 115.68 107.12 126.61 90.56 129.44 C 79.46 131.80 67.78 129.98 57.55 125.22 C 36.76 116.02 23.27 92.66 25.96 70.04 C 27.57 45.79 47.51 24.54 71.44 20.75 Z" />
<path fill="#fcfdfc" d=" M 60.00 24.85 C 77.54 17.67 98.73 21.65 112.71 34.40 C 109.71 36.26 106.12 36.61 102.81 37.66 C 78.45 44.68 54.12 51.84 29.69 58.61 C 33.89 43.52 45.49 30.71 60.00 24.85 Z" />
<path fill="#fcfdfc" d=" M 93.38 42.91 C 99.32 40.10 105.95 38.96 112.21 36.97 C 115.18 35.43 117.12 38.73 117.77 41.18 C 119.39 47.59 121.58 53.85 123.05 60.29 C 119.44 56.45 116.71 51.63 111.91 49.07 C 106.41 45.35 99.95 43.48 93.38 42.91 Z" />
<path fill="#fcfdfc" d=" M 83.98 45.44 C 91.89 43.34 100.55 44.30 107.76 48.20 C 116.02 52.01 121.94 59.75 124.94 68.19 C 114.39 71.70 103.58 74.37 92.90 77.47 C 90.15 66.73 86.51 56.23 83.98 45.44 Z" />
<path fill="#fcfdfc" d=" M 121.02 44.66 C 127.72 53.87 131.07 65.60 130.29 76.96 C 126.89 66.31 123.63 55.54 121.02 44.66 Z" />
<path fill="#fcfdfc" d=" M 49.79 73.90 C 56.30 60.59 68.52 49.88 82.88 45.96 C 86.57 58.74 90.41 71.46 93.82 84.31 C 95.05 89.22 97.14 93.93 97.72 98.98 C 80.41 103.80 63.25 109.19 45.87 113.73 C 42.07 100.56 43.68 86.11 49.79 73.90 Z" />
<path fill="#fcfdfc" d=" M 30.42 60.60 C 44.04 56.75 57.53 52.38 71.27 48.98 C 67.07 52.18 62.57 55.05 58.94 58.93 C 47.47 70.11 42.06 86.43 42.46 102.25 C 41.14 99.37 40.62 96.23 39.67 93.23 C 36.78 82.30 33.45 71.49 30.42 60.60 Z" />
<path fill="#fcfdfc" d=" M 28.02 63.57 C 29.29 65.04 29.89 66.90 30.38 68.74 C 34.59 83.54 39.07 98.28 42.87 113.18 C 38.54 110.51 36.22 105.62 33.64 101.39 C 27.17 89.96 26.02 76.36 28.02 63.57 Z" />
<path fill="#fcfdfc" d=" M 105.93 74.79 C 112.38 72.88 118.88 71.14 125.32 69.17 C 128.63 79.43 121.71 90.97 111.81 94.42 C 109.31 88.06 107.91 81.33 105.93 74.79 Z" />
<path fill="#fcfdfc" d=" M 95.00 84.98 C 95.02 81.47 96.74 78.04 100.02 76.55 C 100.72 78.75 101.43 80.96 102.09 83.18 C 99.89 84.32 97.44 84.75 95.00 84.98 Z" />
<path fill="#fcfdfc" d=" M 101.25 76.10 C 102.59 76.60 104.81 76.66 105.27 78.32 C 105.54 79.56 105.65 80.82 105.82 82.07 C 103.80 80.48 100.92 79.18 101.25 76.10 Z" />
<path fill="#fcfdfc" d=" M 93.87 78.21 C 95.31 77.63 95.76 78.05 95.25 79.49 C 93.81 80.08 93.36 79.65 93.87 78.21 Z" />
<path fill="#fcfdfc" d=" M 124.05 86.01 C 125.72 83.37 126.42 80.27 127.79 77.48 C 129.37 81.37 130.23 85.63 128.60 89.66 C 125.34 90.80 121.99 91.72 118.61 92.43 C 120.44 90.30 122.61 88.45 124.05 86.01 Z" />
<path fill="#fcfdfc" d=" M 95.39 86.73 C 99.09 84.92 103.17 84.09 107.13 83.06 C 108.39 86.83 109.38 90.67 110.70 94.42 C 104.61 96.76 97.96 92.25 95.39 86.73 Z" />
<path fill="#fcfdfc" d=" M 97.30 92.47 C 99.95 93.95 102.69 95.29 105.34 96.80 C 103.21 97.50 101.05 98.10 98.88 98.64 C 98.37 96.58 97.79 94.53 97.30 92.47 Z" />
<path fill="#fcfdfc" d=" M 51.41 114.56 C 76.75 107.54 101.89 99.82 127.27 93.00 C 121.96 111.27 105.38 125.56 86.62 128.50 C 79.23 128.94 71.58 129.31 64.46 126.90 C 57.52 124.97 51.14 121.37 45.71 116.68 C 47.52 115.73 49.44 115.06 51.41 114.56 Z" />
</svg>
