<?xml version="1.0" standalone="no"?>
<!DOCTYPE svg PUBLIC "-//W3C//DTD SVG 20010904//EN"
 "http://www.w3.org/TR/2001/REC-SVG-20010904/DTD/svg10.dtd">
<svg version="1.0" xmlns="http://www.w3.org/2000/svg"
 width="474.000000pt" height="447.000000pt" viewBox="0 0 474.000000 447.000000"
 preserveAspectRatio="xMidYMid meet">
<metadata>
Created by potrace 1.10, written by Peter Selinger 2001-2011
</metadata>
<g transform="translate(0.000000,447.000000) scale(0.100000,-0.100000)"
fill="#000000" stroke="none">
<path d="M3410 4235 c0 -12 15 -15 75 -15 60 0 75 3 75 15 0 12 -15 15 -75 15
-60 0 -75 -3 -75 -15z"/>
<path d="M2290 4190 c-95 -8 -275 -36 -290 -45 -5 -3 -28 -9 -52 -14 -179 -38
-361 -114 -558 -234 -83 -51 -251 -177 -313 -236 -85 -82 -307 -338 -307 -355
0 -2 -27 -50 -60 -105 -33 -56 -60 -105 -60 -109 0 -4 -18 -44 -39 -89 -61
-126 -122 -318 -141 -448 -4 -27 -13 -79 -20 -115 -15 -84 -15 -383 0 -480 22
-134 49 -266 62 -300 3 -8 16 -46 28 -85 12 -38 29 -86 37 -105 35 -86 139
-285 192 -366 70 -108 234 -304 301 -359 27 -22 81 -68 121 -102 59 -50 187
-133 323 -210 52 -29 125 -62 171 -78 27 -9 54 -20 60 -24 5 -4 39 -16 75 -26
36 -9 83 -23 105 -30 136 -44 319 -68 525 -68 220 0 330 15 514 69 26 8 55 14
62 14 8 0 22 4 32 9 9 5 37 17 62 26 235 88 444 217 629 386 35 33 67 59 72
59 9 0 218 258 227 280 3 8 8 17 12 20 31 25 162 262 207 376 53 134 67 177
78 234 3 19 10 44 15 55 23 52 54 333 53 475 0 82 -13 258 -22 300 -58 277
-83 362 -152 508 -21 46 -39 85 -39 88 0 3 -19 38 -41 77 -108 187 -291 413
-419 519 -25 20 -70 57 -100 81 -91 75 -398 256 -435 257 -5 0 -23 7 -40 16
-42 22 -136 54 -157 54 -10 0 -26 4 -36 9 -25 14 -149 42 -206 47 -27 3 -53 7
-58 10 -21 13 -313 23 -418 14z m425 -80 c28 -5 75 -12 105 -16 30 -3 66 -11
80 -16 14 -5 43 -13 65 -18 130 -28 414 -160 541 -250 215 -154 337 -274 473
-465 43 -60 96 -141 116 -180 21 -38 42 -77 47 -85 24 -44 74 -167 103 -255
69 -215 86 -322 92 -580 4 -170 2 -222 -17 -350 -12 -82 -25 -156 -30 -165 -4
-8 -11 -36 -15 -63 -4 -26 -11 -50 -16 -53 -5 -3 -9 -14 -9 -24 0 -21 -51
-150 -103 -260 -29 -61 -114 -209 -127 -220 -3 -3 -14 -18 -24 -35 -30 -47
-175 -224 -217 -264 -139 -133 -327 -268 -469 -338 -157 -77 -193 -93 -217
-93 -10 0 -23 -4 -29 -9 -11 -11 -63 -27 -154 -47 -213 -49 -403 -60 -625 -37
-160 16 -196 24 -365 78 -153 49 -401 170 -470 230 -14 11 -44 34 -67 49 -23
15 -57 42 -75 60 -18 17 -48 42 -65 54 -37 26 -169 180 -259 304 -56 76 -87
128 -156 258 -30 57 -90 219 -131 355 -81 266 -89 670 -20 970 19 84 101 336
114 350 5 5 9 14 9 20 0 12 74 153 118 225 12 19 26 44 31 55 5 11 26 38 45
59 20 22 36 43 36 47 0 5 10 19 23 33 13 13 41 46 62 73 134 163 346 326 570
436 205 102 326 137 600 176 69 10 356 4 430 -9z"/>
<path d="M2180 3860 c-139 -21 -231 -44 -307 -77 -17 -7 -36 -13 -42 -13 -11
0 -56 -18 -136 -56 -28 -13 -53 -24 -57 -24 -4 0 -60 -36 -125 -79 -113 -76
-312 -244 -343 -291 -8 -12 -37 -50 -64 -83 -46 -58 -86 -116 -112 -162 -6
-11 -24 -45 -41 -75 -16 -30 -36 -66 -44 -80 -26 -48 -61 -148 -94 -275 -13
-49 -29 -106 -34 -125 -10 -32 -33 -263 -32 -320 1 -77 22 -276 37 -345 38
-179 133 -406 239 -570 73 -113 211 -262 360 -389 33 -28 62 -53 65 -56 34
-35 238 -146 340 -185 25 -10 59 -24 77 -31 17 -8 37 -14 44 -14 7 0 31 -6 54
-14 54 -19 130 -35 190 -41 220 -23 256 -24 360 -15 60 6 124 13 140 16 87 15
228 53 280 73 11 5 47 19 80 31 64 25 222 106 289 149 91 58 166 120 267 221
137 136 237 269 304 405 10 22 24 47 31 55 6 8 21 42 32 75 11 33 30 85 42
115 54 137 95 459 79 630 -33 368 -143 656 -352 925 -178 229 -469 439 -737
532 -231 81 -305 94 -540 98 -107 2 -220 0 -250 -5z m485 -80 c283 -72 379
-117 653 -305 56 -39 65 -61 30 -70 -69 -16 -260 -66 -303 -78 -154 -44 -219
-63 -317 -93 -120 -37 -193 -58 -298 -84 -25 -7 -59 -18 -77 -26 -17 -8 -37
-14 -44 -14 -7 0 -31 -6 -54 -14 -22 -8 -92 -28 -155 -45 -63 -17 -137 -38
-165 -46 -27 -8 -76 -21 -108 -29 -113 -30 -173 -47 -237 -68 -68 -21 -240
-71 -325 -93 -27 -7 -63 -18 -80 -23 -16 -5 -55 -17 -85 -26 -69 -20 -170 -52
-193 -61 -26 -11 -22 24 14 102 65 143 73 159 98 198 14 22 34 56 45 75 34 63
152 214 206 265 80 76 82 77 135 120 28 22 52 42 55 45 9 10 144 96 175 112
108 56 159 78 225 98 41 13 82 27 90 31 14 8 71 20 185 39 75 13 471 5 530
-10z m797 -442 c35 -38 68 -99 68 -128 0 -27 72 -288 116 -418 38 -114 41
-132 19 -132 -8 0 -15 5 -15 11 0 24 -81 130 -160 209 -93 93 -99 97 -265 184
-118 62 -282 106 -397 106 -27 0 -48 4 -48 9 0 11 8 14 110 36 41 9 84 20 95
25 11 4 49 15 85 24 63 16 189 53 220 64 24 9 124 40 133 41 5 0 22 -13 39
-31z m172 -201 c111 -186 189 -370 235 -559 35 -143 64 -432 45 -451 -15 -14
-46 47 -59 115 -15 73 -41 175 -89 343 -14 50 -33 117 -42 150 -28 100 -45
155 -85 274 -37 109 -48 161 -31 161 4 0 16 -15 26 -33z m-729 -29 c66 -9 146
-30 190 -48 240 -101 356 -187 488 -365 20 -27 40 -54 45 -60 18 -23 72 -116
72 -125 0 -5 7 -25 17 -44 21 -45 9 -61 -54 -70 -26 -3 -61 -10 -78 -16 -16
-5 -55 -16 -85 -25 -134 -38 -196 -58 -212 -66 -10 -5 -28 -9 -40 -9 -13 0
-35 -7 -51 -14 -15 -8 -71 -26 -125 -40 -53 -13 -133 -36 -177 -50 -101 -33
-115 -33 -115 -2 0 14 -4 27 -9 30 -5 3 -12 30 -16 61 -3 30 -10 57 -15 60 -4
3 -11 24 -15 48 -4 23 -11 47 -15 52 -4 6 -11 30 -15 55 -4 25 -11 50 -15 55
-4 6 -10 24 -13 40 -2 17 -10 44 -16 60 -6 17 -20 64 -31 105 -12 41 -25 83
-31 92 -5 10 -9 27 -9 38 0 24 -36 135 -56 172 -20 37 -17 57 9 62 124 25 221
26 372 4z m-424 -68 c9 -52 30 -133 39 -150 4 -9 11 -36 15 -60 4 -25 11 -49
15 -55 4 -5 11 -26 14 -45 4 -19 11 -44 15 -55 5 -11 16 -47 25 -80 9 -33 23
-80 31 -105 7 -25 17 -62 20 -83 4 -20 11 -39 15 -42 5 -3 11 -24 15 -48 4
-23 11 -47 16 -53 5 -6 13 -31 18 -55 19 -86 31 -134 45 -169 23 -58 46 -141
46 -166 0 -12 4 -25 9 -28 5 -3 12 -23 16 -43 4 -21 11 -43 16 -49 5 -7 12
-35 16 -63 3 -28 10 -54 14 -57 5 -3 9 -15 9 -27 0 -13 9 -40 20 -62 11 -21
17 -42 12 -45 -4 -4 -36 -15 -72 -25 -36 -9 -83 -24 -105 -31 -22 -7 -76 -23
-120 -35 -127 -34 -178 -48 -205 -58 -14 -5 -50 -16 -80 -24 -30 -9 -100 -30
-155 -47 -55 -16 -106 -30 -112 -30 -7 0 -56 -14 -110 -31 -133 -41 -177 -54
-253 -73 -36 -10 -87 -23 -115 -31 -27 -8 -59 -16 -70 -19 -11 -2 -45 -14 -75
-25 -30 -12 -61 -21 -68 -21 -18 0 -42 61 -42 106 0 20 -7 64 -16 98 -13 50
-15 93 -11 236 4 96 13 209 21 250 30 149 49 226 62 257 8 17 14 40 14 51 0
12 4 23 9 26 5 3 12 18 16 33 6 24 34 83 111 233 9 19 20 37 24 40 3 3 17 23
30 45 85 143 302 357 470 465 91 59 81 54 335 176 47 22 69 15 76 -26z m-368
-56 c7 -7 -35 -37 -96 -69 -20 -11 -47 -29 -60 -40 -12 -11 -52 -44 -88 -72
-115 -91 -273 -264 -314 -344 -10 -19 -28 -47 -40 -64 -34 -44 -110 -199 -148
-301 -46 -122 -54 -155 -87 -339 -5 -27 -9 -124 -10 -215 -1 -159 -1 -164 -16
-125 -17 45 -25 71 -49 165 -10 36 -24 85 -31 109 -8 25 -14 54 -14 65 0 11
-6 38 -14 61 -8 22 -22 69 -31 105 -10 36 -21 74 -25 85 -5 11 -13 38 -19 60
-5 22 -18 65 -27 95 -9 30 -22 78 -30 105 -7 28 -20 73 -28 100 -9 28 -22 73
-30 100 -20 67 -37 116 -49 139 -7 16 -5 24 13 38 12 10 32 18 44 18 12 0 42
6 67 14 24 8 71 22 104 31 33 9 80 23 105 30 96 29 250 74 360 105 63 18 133
38 155 45 22 7 65 20 95 29 100 30 185 58 200 67 18 10 54 12 63 3z m-1226
-536 c13 -51 28 -106 32 -123 5 -16 20 -73 36 -125 15 -52 35 -124 45 -160 62
-216 98 -339 116 -395 6 -22 20 -69 29 -105 10 -36 31 -110 47 -165 16 -55 36
-125 45 -155 8 -30 22 -70 29 -88 15 -36 19 -86 6 -80 -17 7 -81 86 -144 178
-58 85 -167 273 -168 289 -1 3 -9 24 -20 46 -11 22 -19 47 -20 56 0 9 -3 19
-7 23 -4 4 -14 26 -21 49 -71 223 -95 462 -72 717 6 74 14 139 17 143 11 18
26 -14 50 -105z m2873 -87 c5 -11 10 -61 10 -111 0 -91 -23 -194 -56 -259 -8
-14 -14 -31 -14 -38 0 -6 -3 -13 -7 -15 -5 -1 -17 -21 -28 -42 -20 -39 -156
-185 -185 -199 -8 -4 -35 -18 -59 -32 -74 -42 -101 -32 -101 38 0 17 -4 44
-10 61 -5 17 -19 65 -31 106 -12 41 -27 89 -34 105 -18 42 -35 99 -35 115 0 8
-9 33 -21 57 -27 56 -18 68 69 83 37 6 71 15 77 20 5 4 31 13 58 19 26 6 68
16 95 22 26 6 52 15 57 19 6 4 26 10 46 14 21 4 50 12 65 20 92 42 90 42 104
17z m-662 -205 c15 -8 35 -23 45 -34 18 -19 17 -20 -12 -42 -42 -29 -73 -23
-82 15 -4 17 -11 40 -14 53 -6 18 -4 22 14 22 12 0 34 -6 49 -14z m758 -101
c30 -110 32 -134 14 -215 -15 -68 -31 -83 -106 -99 -33 -7 -91 -24 -131 -38
-91 -32 -108 -27 -58 18 129 114 193 216 215 339 7 36 14 76 17 89 7 38 19 14
49 -94z m-851 43 c10 -29 24 -68 33 -87 14 -31 14 -35 -1 -46 -10 -7 -36 -15
-58 -19 -23 -4 -54 -13 -70 -21 -47 -25 -59 -20 -59 24 0 41 13 78 45 126 24
36 66 74 82 75 6 0 19 -24 28 -52z m-145 19 c0 -12 -33 -67 -40 -67 -15 0 -22
20 -16 46 5 17 13 24 31 24 14 0 25 -2 25 -3z m305 -67 c11 -17 -5 -50 -24
-50 -26 0 -31 9 -19 36 12 25 32 32 43 14z m44 -122 c5 -18 13 -51 17 -73 4
-22 10 -44 14 -50 4 -5 11 -26 15 -45 4 -19 16 -54 27 -78 31 -65 22 -76 -65
-70 -135 9 -270 91 -326 199 -26 50 -22 69 16 69 15 0 78 18 138 39 140 50
151 50 164 9z m-279 -258 c5 0 29 -14 54 -30 49 -34 116 -60 152 -60 73 0 -30
-49 -141 -67 l-32 -5 -21 73 c-11 41 -22 81 -24 89 -3 8 -3 12 -1 8 3 -5 9 -8
13 -8z m894 1 c3 -5 -4 -28 -17 -52 -12 -24 -34 -69 -47 -99 -199 -439 -573
-758 -1025 -874 -179 -46 -400 -58 -573 -31 -102 16 -220 44 -237 55 -5 4 -27
11 -49 14 -21 4 -46 11 -55 16 -9 5 -73 36 -143 70 -70 33 -133 66 -140 73 -7
7 -31 24 -53 37 -22 13 -44 28 -50 32 -5 5 -22 18 -38 29 -15 11 -25 24 -23
28 3 4 33 15 68 25 35 9 83 23 108 31 25 7 72 20 105 29 33 9 80 23 105 30 25
8 63 18 85 24 126 34 232 64 385 109 47 14 114 34 150 44 36 11 79 23 95 28
17 5 64 19 105 30 41 12 95 28 120 35 25 8 72 22 105 31 33 9 78 23 100 30 22
7 69 21 105 30 107 29 242 68 315 91 22 6 60 17 85 24 25 7 74 21 110 31 36
11 90 27 120 36 30 9 75 24 100 34 50 20 76 23 84 10z"/>
</g>
</svg>
